<svg width="336" height="132" viewBox="0 0 336 132" fill="none" xmlns="http://www.w3.org/2000/svg">
<rect width="336" height="132" fill="white"/>
<rect x="35" y="30" width="70" height="72" rx="5" fill="white"/>
<path d="M90 45.4142V91C90 91.9027 88.8984 92.3433 88.2759 91.6897L80.2956 83.3103C80.1068 83.1122 79.8451 83 79.5714 83H58C53.5817 83 50 79.4183 50 75V45.4142C50 44.5233 51.0771 44.0771 51.7071 44.7071L58.5355 51.5355C59.4732 52.4732 60.745 53 62.0711 53H77.9289C79.255 53 80.5268 52.4732 81.4645 51.5355L88.2929 44.7071C88.9229 44.0771 90 44.5233 90 45.4142Z" fill="white" stroke="white" stroke-width="2"/>
<rect x="57" y="66" width="6" height="6" rx="3" fill="black"/>
<rect x="77" y="66" width="6" height="6" rx="3" fill="black"/>
<path d="M145.566 77.1172V82H127.344V53.8164H133.242V77.1172H145.566ZM148.832 82V61.0625H154.535V82H148.832ZM151.683 58.7578C149.965 58.7578 148.637 57.4492 148.637 55.8086C148.637 54.1484 149.965 52.8594 151.683 52.8594C153.402 52.8594 154.73 54.1484 154.73 55.8086C154.73 57.4492 153.402 58.7578 151.683 58.7578ZM160.027 56.2383H165.73V61.0625H169.597V65.3594H165.73V75.3789C165.73 76.9805 166.511 77.7422 168.191 77.7422C168.699 77.7422 169.226 77.7031 169.578 77.6445V81.8438C168.992 81.9805 168.015 82.0781 166.863 82.0781C161.941 82.0781 160.027 80.4375 160.027 76.3555V65.3594H157.078V61.0625H160.027V56.2383ZM174.406 56.2383H180.109V61.0625H183.976V65.3594H180.109V75.3789C180.109 76.9805 180.89 77.7422 182.57 77.7422C183.078 77.7422 183.605 77.7031 183.957 77.6445V81.8438C183.371 81.9805 182.394 82.0781 181.242 82.0781C176.32 82.0781 174.406 80.4375 174.406 76.3555V65.3594H171.457V61.0625H174.406V56.2383ZM196.343 64.832C193.843 64.832 192.046 66.7266 191.851 69.3438H200.738C200.62 66.668 198.882 64.832 196.343 64.832ZM200.816 75.5938H206.05C205.425 79.6953 201.675 82.4492 196.499 82.4492C190.054 82.4492 186.187 78.3281 186.187 71.6289C186.187 64.9492 190.093 60.6133 196.285 60.6133C202.378 60.6133 206.226 64.7344 206.226 71.1016V72.8398H191.792V73.1914C191.792 76.1797 193.687 78.2305 196.597 78.2305C198.687 78.2305 200.288 77.1953 200.816 75.5938ZM209.335 82V61.0625H214.843V64.832H214.96C215.702 62.1758 217.48 60.7305 219.941 60.7305C220.605 60.7305 221.171 60.8281 221.562 60.9453V65.9648C221.093 65.7695 220.312 65.6328 219.491 65.6328C216.679 65.6328 215.038 67.3516 215.038 70.3008V82H209.335ZM236.507 82.332C233.44 82.332 231.097 80.8477 229.944 78.4062H229.827V82H224.202V53.8164H229.905V64.6953H230.022C231.175 62.2148 233.499 60.7305 236.487 60.7305C241.761 60.7305 245.003 64.7734 245.003 71.5312C245.003 78.2695 241.78 82.332 236.507 82.332ZM234.534 65.3008C231.78 65.3008 229.886 67.7812 229.886 71.5312C229.886 75.3203 231.761 77.7422 234.534 77.7422C237.386 77.7422 239.163 75.3594 239.163 71.5312C239.163 67.7227 237.366 65.3008 234.534 65.3008ZM257.741 82.4492C251.413 82.4492 247.37 78.3867 247.37 71.5117C247.37 64.7344 251.472 60.6133 257.741 60.6133C264.011 60.6133 268.112 64.7148 268.112 71.5117C268.112 78.4062 264.069 82.4492 257.741 82.4492ZM257.741 78.0938C260.534 78.0938 262.311 75.7305 262.311 71.5312C262.311 67.3711 260.515 64.9688 257.741 64.9688C254.968 64.9688 253.151 67.3711 253.151 71.5312C253.151 75.7305 254.929 78.0938 257.741 78.0938ZM279.327 74.7344H279.21L275.284 82H269.288L275.85 71.5703L269.327 61.0625H275.753L279.522 68.1328H279.639L283.35 61.0625H289.561L283.018 71.4141L289.503 82H283.311L279.327 74.7344Z" fill="white"/>
</svg>
