<svg width="632" height="518" viewBox="0 0 387 518" fill="none" xmlns="http://www.w3.org/2000/svg">
<path d="M8.84405 220.725C-1.5633 229.798 -2.64484 245.59 6.42839 255.998L226.904 508.891C235.977 519.299 251.769 520.38 262.176 511.307L387 402.485L387 120.195L289.923 8.8441C280.85 -1.56326 265.058 -2.64477 254.65 6.42846L8.84405 220.725Z" fill="#F3F3F3"/>
<path d="M387 248.97L254.596 97.0977C254.004 96.4182 252.885 96.8077 252.843 97.708L249.561 167.772C249.498 169.134 248.88 170.411 247.853 171.307L173.109 236.469C172.082 237.365 170.733 237.802 169.375 237.68L99.5174 231.379C98.6197 231.298 98.0814 232.353 98.6738 233.032L233.71 387.924C236.614 391.254 241.667 391.601 244.997 388.697L355.576 292.294C355.788 292.109 356.068 292.022 356.347 292.054L386.999 295.572L387 248.97Z" fill="white"/>
<path d="M221.159 316.295C216.041 310.423 216.651 301.514 222.522 296.395C228.394 291.276 237.303 291.887 242.422 297.758C247.54 303.629 246.93 312.539 241.059 317.657C235.187 322.776 226.278 322.166 221.159 316.295Z" fill="#F3F3F3"/>
<path d="M299.12 248.327C294.001 242.456 294.611 233.547 300.483 228.428C306.354 223.309 315.263 223.919 320.382 229.791C325.501 235.662 324.891 244.571 319.019 249.69C313.148 254.809 304.239 254.199 299.12 248.327Z" fill="#F3F3F3"/>
</svg>
