<svg width="50" height="52" viewBox="0 0 50 52" fill="none" xmlns="http://www.w3.org/2000/svg">
<rect width="50" height="51.25" rx="5" fill="black"/>
<path d="M38.75 11.2398V42.4198C38.75 43.333 37.6266 43.7684 37.0112 43.0937L32.1724 37.789C31.983 37.5812 31.7148 37.4629 31.4336 37.4629H19.25C14.8317 37.4629 11.25 33.8812 11.25 29.4629V11.2398C11.25 10.3385 12.3487 9.8972 12.9722 10.5481L16.6486 14.3867C17.5917 15.3714 18.896 15.9282 20.2595 15.9282H29.7405C31.104 15.9282 32.4083 15.3714 33.3514 14.3867L37.0278 10.5482C37.6513 9.89721 38.75 10.3385 38.75 11.2398Z" fill="white" stroke="black" stroke-width="2"/>
<rect x="16.25" y="26.25" width="3.75" height="3.75" rx="1.875" fill="black"/>
<rect x="30" y="26.25" width="3.75" height="3.75" rx="1.875" fill="black"/>
</svg>
