<svg width="166" height="52" viewBox="0 0 166 52" fill="none" xmlns="http://www.w3.org/2000/svg">
<path d="M78.3398 30.0703V33H67.4062V16.0898H70.9453V30.0703H78.3398ZM80.2991 33V20.4375H83.721V33H80.2991ZM82.0101 19.0547C80.9788 19.0547 80.1819 18.2695 80.1819 17.2852C80.1819 16.2891 80.9788 15.5156 82.0101 15.5156C83.0413 15.5156 83.8382 16.2891 83.8382 17.2852C83.8382 18.2695 83.0413 19.0547 82.0101 19.0547ZM87.0162 17.543H90.4381V20.4375H92.7584V23.0156H90.4381V29.0273C90.4381 29.9883 90.9068 30.4453 91.9147 30.4453C92.2193 30.4453 92.5357 30.4219 92.7467 30.3867V32.9062C92.3951 32.9883 91.8092 33.0469 91.1178 33.0469C88.1647 33.0469 87.0162 32.0625 87.0162 29.6133V23.0156H85.2467V20.4375H87.0162V17.543ZM95.6435 17.543H99.0653V20.4375H101.386V23.0156H99.0653V29.0273C99.0653 29.9883 99.5341 30.4453 100.542 30.4453C100.847 30.4453 101.163 30.4219 101.374 30.3867V32.9062C101.022 32.9883 100.436 33.0469 99.745 33.0469C96.7919 33.0469 95.6435 32.0625 95.6435 29.6133V23.0156H93.8739V20.4375H95.6435V17.543ZM108.806 22.6992C107.306 22.6992 106.228 23.8359 106.111 25.4062H111.443C111.372 23.8008 110.329 22.6992 108.806 22.6992ZM111.489 29.1562H114.63C114.255 31.6172 112.005 33.2695 108.9 33.2695C105.032 33.2695 102.712 30.7969 102.712 26.7773C102.712 22.7695 105.056 20.168 108.771 20.168C112.427 20.168 114.736 22.6406 114.736 26.4609V27.5039H106.075V27.7148C106.075 29.5078 107.212 30.7383 108.958 30.7383C110.212 30.7383 111.173 30.1172 111.489 29.1562ZM116.601 33V20.4375H119.906V22.6992H119.976C120.421 21.1055 121.488 20.2383 122.964 20.2383C123.363 20.2383 123.703 20.2969 123.937 20.3672V23.3789C123.656 23.2617 123.187 23.1797 122.695 23.1797C121.007 23.1797 120.023 24.2109 120.023 25.9805V33H116.601ZM132.904 33.1992C131.064 33.1992 129.658 32.3086 128.967 30.8438H128.896V33H125.521V16.0898H128.943V22.6172H129.014C129.705 21.1289 131.099 20.2383 132.892 20.2383C136.056 20.2383 138.002 22.6641 138.002 26.7188C138.002 30.7617 136.068 33.1992 132.904 33.1992ZM131.721 22.9805C130.068 22.9805 128.931 24.4688 128.931 26.7188C128.931 28.9922 130.056 30.4453 131.721 30.4453C133.431 30.4453 134.498 29.0156 134.498 26.7188C134.498 24.4336 133.42 22.9805 131.721 22.9805ZM145.645 33.2695C141.848 33.2695 139.422 30.832 139.422 26.707C139.422 22.6406 141.883 20.168 145.645 20.168C149.406 20.168 151.867 22.6289 151.867 26.707C151.867 30.8438 149.442 33.2695 145.645 33.2695ZM145.645 30.6562C147.32 30.6562 148.387 29.2383 148.387 26.7188C148.387 24.2227 147.309 22.7812 145.645 22.7812C143.981 22.7812 142.891 24.2227 142.891 26.7188C142.891 29.2383 143.957 30.6562 145.645 30.6562ZM158.596 28.6406H158.526L156.17 33H152.573L156.51 26.7422L152.596 20.4375H156.452L158.713 24.6797H158.784L161.01 20.4375H164.737L160.811 26.6484L164.702 33H160.987L158.596 28.6406Z" fill="white"/>
<rect width="50" height="51.25" rx="5" fill="white"/>
<path d="M38.75 11.2398V42.4198C38.75 43.333 37.6266 43.7684 37.0112 43.0937L32.1724 37.789C31.983 37.5812 31.7148 37.4629 31.4336 37.4629H19.25C14.8317 37.4629 11.25 33.8812 11.25 29.4629V11.2398C11.25 10.3385 12.3487 9.8972 12.9722 10.5481L16.6486 14.3867C17.5917 15.3714 18.896 15.9282 20.2595 15.9282H29.7405C31.104 15.9282 32.4083 15.3714 33.3514 14.3867L37.0278 10.5482C37.6513 9.89721 38.75 10.3385 38.75 11.2398Z" fill="black" stroke="white" stroke-width="2"/>
<rect x="16.25" y="26.25" width="3.75" height="3.75" rx="1.875" fill="white"/>
<rect x="30" y="26.25" width="3.75" height="3.75" rx="1.875" fill="white"/>
</svg>
