<svg width="28" height="28" viewBox="0 0 30 30" fill="none" xmlns="http://www.w3.org/2000/svg">
<path d="M5.25008 19.25C3.50008 20.72 2.91675 25.0833 2.91675 25.0833C2.91675 25.0833 7.28008 24.5 8.75008 22.75C9.57841 21.77 9.56675 20.265 8.64508 19.355C8.19161 18.9222 7.59426 18.6721 6.96768 18.6527C6.3411 18.6333 5.72944 18.846 5.25008 19.25ZM14.0001 17.5L10.5001 14C11.1209 12.3893 11.9027 10.8454 12.8334 9.39167C14.1928 7.21815 16.0856 5.42856 18.3319 4.19311C20.5782 2.95766 23.1032 2.31743 25.6667 2.33334C25.6667 5.50667 24.7567 11.0833 18.6667 15.1667C17.1929 16.0982 15.6296 16.8798 14.0001 17.5Z" stroke="#6D6D6D" stroke-width="2" stroke-linecap="round" stroke-linejoin="round"/>
<path d="M10.5001 14H4.66675C4.66675 14 5.30841 10.465 7.00008 9.33334C8.89008 8.07334 12.8334 9.33334 12.8334 9.33334M14.0001 17.5V23.3333C14.0001 23.3333 17.5351 22.6917 18.6667 21C19.9267 19.11 18.6667 15.1667 18.6667 15.1667" stroke="#6D6D6D" stroke-width="2" stroke-linecap="round" stroke-linejoin="round"/>
</svg>
