<svg width="30" height="30" viewBox="0 0 30 30" fill="none" xmlns="http://www.w3.org/2000/svg">
<path d="M18.2662 7.44093V12.5756L20.0625 13.7053C20.1274 13.7192 20.1945 13.7192 20.2594 13.7053L27.9825 8.49843C27.9768 8.24573 27.8844 8.00267 27.7207 7.81009C27.5569 7.61752 27.3319 7.48716 27.0834 7.44093H18.2662Z" fill="#0072C6"/>
<path d="M18.2662 14.4909L19.904 15.6159C19.9806 15.6628 20.0687 15.6877 20.1585 15.6877C20.2484 15.6877 20.3365 15.6628 20.4131 15.6159C20.1318 15.7856 27.9815 10.5741 27.9815 10.5741V20.0109C28.002 20.2022 27.9804 20.3956 27.9183 20.5776C27.8563 20.7596 27.7552 20.9258 27.6221 21.0647C27.4891 21.2036 27.3273 21.3117 27.1481 21.3815C26.9689 21.4513 26.7766 21.481 26.5846 21.4688H18.2653L18.2662 14.4909ZM9.78745 12.1238C9.51535 12.1225 9.24797 12.1949 9.01363 12.3332C8.77928 12.4715 8.58668 12.6706 8.45621 12.9094C8.10002 13.5425 7.92913 14.2631 7.96308 14.9888C7.92607 15.7129 8.09719 16.4325 8.45621 17.0625C8.58606 17.2915 8.7739 17.4823 9.00086 17.6158C9.22781 17.7492 9.48589 17.8205 9.74916 17.8226C10.0124 17.8247 10.2716 17.7575 10.5007 17.6277C10.7297 17.4979 10.9205 17.3101 11.054 17.0831C11.4098 16.4563 11.5774 15.7402 11.5368 15.0206C11.5774 14.2785 11.4154 13.5393 11.0681 12.8822C10.9436 12.6514 10.7587 12.4589 10.533 12.3252C10.3074 12.1916 10.0497 12.122 9.78745 12.1238Z" fill="#0072C6"/>
<path d="M2.01843 4.83281V24.9206L17.2997 28.125V1.875L2.01843 4.83281ZM12.2447 18.2728C11.9589 18.6759 11.5788 19.0029 11.1376 19.2253C10.6964 19.4477 10.2074 19.5587 9.71343 19.5487C9.23188 19.5573 8.75539 19.4494 8.32448 19.2343C7.89357 19.0192 7.52099 18.7032 7.23843 18.3131C6.56836 17.3775 6.23314 16.2433 6.28687 15.0938C6.23 13.8878 6.57128 12.6966 7.25812 11.7038C7.54777 11.2932 7.93386 10.9602 8.38244 10.734C8.83102 10.5077 9.32833 10.3952 9.83062 10.4062C10.3086 10.397 10.7816 10.505 11.2082 10.7209C11.6348 10.9368 12.0019 11.254 12.2775 11.6447C12.9409 12.6006 13.2704 13.7487 13.215 14.9109C13.2737 16.1082 12.9323 17.2909 12.2447 18.2728Z" fill="#0072C6"/>
</svg>
