<svg width="22" height="22" viewBox="0 0 30 30" fill="none" xmlns="http://www.w3.org/2000/svg">
<path d="M15 10C13.6739 10 12.4021 10.5268 11.4645 11.4645C10.5268 12.4021 10 13.6739 10 15C10 16.3261 10.5268 17.5979 11.4645 18.5355C12.4021 19.4732 13.6739 20 15 20C16.3261 20 17.5979 19.4732 18.5355 18.5355C19.4732 17.5979 20 16.3261 20 15C20 13.6739 19.4732 12.4021 18.5355 11.4645C17.5979 10.5268 16.3261 10 15 10Z" fill="black"/>
<path fill-rule="evenodd" clip-rule="evenodd" d="M16.107 0.28212C15.7684 0.0970962 15.3874 0 15 0C14.6126 0 14.2316 0.0970962 13.893 0.28212L2.17209 6.68537C1.81679 6.87952 1.52075 7.16357 1.31466 7.50809C1.10857 7.85261 0.999932 8.24506 1 8.64477V21.3552C1 22.17 1.4493 22.9192 2.17209 23.3146L13.893 29.7179C14.2316 29.9029 14.6126 30 15 30C15.3874 30 15.7684 29.9029 16.107 29.7179L27.8279 23.3146C28.183 23.1206 28.4789 22.8368 28.6849 22.4926C28.891 22.1484 28.9998 21.7563 29 21.3568V8.64477C29.0001 8.24506 28.8914 7.85261 28.6853 7.50809C28.4792 7.16357 28.1832 6.87952 27.8279 6.68537L16.107 0.28212ZM7.26744 15C7.26744 12.9833 8.08212 11.0493 9.53226 9.62326C10.9824 8.19726 12.9492 7.39614 15 7.39614C17.0508 7.39614 19.0176 8.19726 20.4677 9.62326C21.9179 11.0493 22.7326 12.9833 22.7326 15C22.7326 17.0167 21.9179 18.9507 20.4677 20.3767C19.0176 21.8027 17.0508 22.6039 15 22.6039C12.9492 22.6039 10.9824 21.8027 9.53226 20.3767C8.08212 18.9507 7.26744 17.0167 7.26744 15Z" fill="black"/>
</svg>
