<svg width="27" height="27" viewBox="0 0 30 30" fill="none" xmlns="http://www.w3.org/2000/svg">
<path fill-rule="evenodd" clip-rule="evenodd" d="M13.7329 0.323479C14.1205 0.111327 14.5566 0 15 0C15.4434 0 15.8795 0.111327 16.2671 0.323479L27.6569 6.56018C28.4859 7.0139 29 7.87457 29 8.81007V21.1899C29 22.1254 28.4859 22.9861 27.6569 23.4398L16.2671 29.6765C15.8795 29.8887 15.4434 30 15 30C14.5566 30 14.1205 29.8887 13.7329 29.6765L2.34305 23.4398C1.9359 23.217 1.59665 22.8909 1.3605 22.4952C1.12434 22.0996 0.999868 21.6489 1 21.1899V8.81007C1 7.87457 1.51412 7.0139 2.34305 6.56018L13.7329 0.323479ZM15.1155 2.36912C15.0802 2.34973 15.0404 2.33955 15 2.33955C14.9596 2.33955 14.9198 2.34973 14.8845 2.36912L3.49469 8.60582C3.45801 8.62596 3.4274 8.65534 3.406 8.69095C3.3846 8.72656 3.37317 8.76713 3.37288 8.80852V21.1915C3.37288 21.2757 3.42034 21.3536 3.49469 21.3942L14.8845 27.6309C14.9198 27.6503 14.9596 27.6605 15 27.6605C15.0404 27.6605 15.0802 27.6503 15.1155 27.6309L26.5053 21.3942C26.542 21.374 26.5726 21.3447 26.594 21.3091C26.6154 21.2734 26.6268 21.2329 26.6271 21.1915V8.81007C26.6271 8.76842 26.6158 8.72753 26.5944 8.69162C26.573 8.65571 26.5422 8.62609 26.5053 8.60582L15.1155 2.36912Z" fill="#A1A1A1"/>
<path fill-rule="evenodd" clip-rule="evenodd" d="M7.22217 15C7.22217 12.9423 8.04161 10.9688 9.50023 9.51381C10.9588 8.05879 12.9372 7.24136 14.9999 7.24136C17.0627 7.24136 19.041 8.05879 20.4997 9.51381C21.9583 10.9688 22.7777 12.9423 22.7777 15C22.7777 17.0577 21.9583 19.0311 20.4997 20.4862C19.041 21.9412 17.0627 22.7586 14.9999 22.7586C12.9372 22.7586 10.9588 21.9412 9.50023 20.4862C8.04161 19.0311 7.22217 17.0577 7.22217 15ZM14.9999 9.69145C13.5886 9.69145 12.235 10.2507 11.237 11.2463C10.239 12.2418 9.67831 13.5921 9.67831 15C9.67831 16.4079 10.239 17.7581 11.237 18.7537C12.235 19.7492 13.5886 20.3085 14.9999 20.3085C16.4113 20.3085 17.7649 19.7492 18.7629 18.7537C19.7609 17.7581 20.3216 16.4079 20.3216 15C20.3216 13.5921 19.7609 12.2418 18.7629 11.2463C17.7649 10.2507 16.4113 9.69145 14.9999 9.69145Z" fill="#A1A1A1"/>
</svg>
