<?xml version="1.0" standalone="no"?>
<!DOCTYPE svg PUBLIC "-//W3C//DTD SVG 1.0//EN" "http://www.w3.org/TR/2001/REC-SVG-20010904/DTD/svg10.dtd">
<svg xmlns="http://www.w3.org/2000/svg" xmlns:xlink="http://www.w3.org/1999/xlink" id="body_1" width="18" height="18">

<g transform="matrix(0.72 0 0 0.72 0 0)">
	<g transform="matrix(1 0 0 1 0 0)">
		<g transform="matrix(0.013950894 0 0 0.013950894 0 0)">
			<path  d="M1420 128C 1435.3334 128 1450 131 1464 137C 1486 145.66667 1503.5 159.33334 1516.5 178C 1525.1667 190.44446 1531.6667 211.11111 1536 240L1536 240L1536 1529C 1536 1551.6667 1529.5 1572.3334 1516.5 1591C 1507.8334 1603.4445 1490.3334 1617.1111 1464 1632C 1451.3334 1637.3334 1436.6667 1640 1420 1640C 1388 1640 1360.3334 1629.3334 1337 1608L1337 1608L896 1184L455 1608C 431 1630 403.33334 1641 372 1641C 356.6667 1641 342 1638 328 1632C 306 1623.3334 288.5 1609.6667 275.5 1591C 266.83334 1578.5555 260.33334 1557.8889 256 1529L256 1529L256 240C 256 217.33334 262.5 196.66669 275.5 178C 284.1667 165.55554 301.6667 151.88889 328 137C 342 131 356.6667 128 372 128L372 128L1420 128z" stroke="none"  fill="#000000" fill-rule="nonzero" />
		</g>
	</g>
</g>
</svg>
