<svg width="148" height="36" viewBox="0 0 153 41" fill="none" xmlns="http://www.w3.org/2000/svg">
<path d="M65.3398 25.0703V28H54.4062V11.0898H57.9453V25.0703H65.3398ZM67.2991 28V15.4375H70.721V28H67.2991ZM69.0101 14.0547C67.9788 14.0547 67.1819 13.2695 67.1819 12.2852C67.1819 11.2891 67.9788 10.5156 69.0101 10.5156C70.0413 10.5156 70.8382 11.2891 70.8382 12.2852C70.8382 13.2695 70.0413 14.0547 69.0101 14.0547ZM74.0162 12.543H77.4381V15.4375H79.7584V18.0156H77.4381V24.0273C77.4381 24.9883 77.9068 25.4453 78.9147 25.4453C79.2193 25.4453 79.5357 25.4219 79.7467 25.3867V27.9062C79.3951 27.9883 78.8092 28.0469 78.1178 28.0469C75.1647 28.0469 74.0162 27.0625 74.0162 24.6133V18.0156H72.2467V15.4375H74.0162V12.543ZM82.6435 12.543H86.0653V15.4375H88.3857V18.0156H86.0653V24.0273C86.0653 24.9883 86.5341 25.4453 87.5419 25.4453C87.8466 25.4453 88.163 25.4219 88.3739 25.3867V27.9062C88.0224 27.9883 87.4364 28.0469 86.745 28.0469C83.7919 28.0469 82.6435 27.0625 82.6435 24.6133V18.0156H80.8739V15.4375H82.6435V12.543ZM95.8059 17.6992C94.3059 17.6992 93.2277 18.8359 93.1106 20.4062H98.4426C98.3723 18.8008 97.3293 17.6992 95.8059 17.6992ZM98.4895 24.1562H101.63C101.255 26.6172 99.0051 28.2695 95.8996 28.2695C92.0324 28.2695 89.7121 25.7969 89.7121 21.7773C89.7121 17.7695 92.0559 15.168 95.7707 15.168C99.427 15.168 101.736 17.6406 101.736 21.4609V22.5039H93.0754V22.7148C93.0754 24.5078 94.2121 25.7383 95.9582 25.7383C97.2121 25.7383 98.1731 25.1172 98.4895 24.1562ZM103.601 28V15.4375H106.906V17.6992H106.976C107.421 16.1055 108.488 15.2383 109.964 15.2383C110.363 15.2383 110.703 15.2969 110.937 15.3672V18.3789C110.656 18.2617 110.187 18.1797 109.695 18.1797C108.007 18.1797 107.023 19.2109 107.023 20.9805V28H103.601ZM119.904 28.1992C118.064 28.1992 116.658 27.3086 115.967 25.8438H115.896V28H112.521V11.0898H115.943V17.6172H116.014C116.705 16.1289 118.099 15.2383 119.892 15.2383C123.056 15.2383 125.002 17.6641 125.002 21.7188C125.002 25.7617 123.068 28.1992 119.904 28.1992ZM118.721 17.9805C117.068 17.9805 115.931 19.4688 115.931 21.7188C115.931 23.9922 117.056 25.4453 118.721 25.4453C120.431 25.4453 121.498 24.0156 121.498 21.7188C121.498 19.4336 120.42 17.9805 118.721 17.9805ZM132.645 28.2695C128.848 28.2695 126.422 25.832 126.422 21.707C126.422 17.6406 128.883 15.168 132.645 15.168C136.406 15.168 138.867 17.6289 138.867 21.707C138.867 25.8438 136.442 28.2695 132.645 28.2695ZM132.645 25.6562C134.32 25.6562 135.387 24.2383 135.387 21.7188C135.387 19.2227 134.309 17.7812 132.645 17.7812C130.981 17.7812 129.891 19.2227 129.891 21.7188C129.891 24.2383 130.957 25.6562 132.645 25.6562ZM145.596 23.6406H145.526L143.17 28H139.573L143.51 21.7422L139.596 15.4375H143.452L145.713 19.6797H145.784L148.01 15.4375H151.737L147.811 21.6484L151.702 28H147.987L145.596 23.6406Z" fill="black"/>
<path d="M39 3.4323V35.4808C39 36.3861 37.8931 36.8255 37.2722 36.1667L32.0461 30.6211C31.8571 30.4206 31.5938 30.3069 31.3183 30.3069H18C13.5817 30.3069 10 26.7252 10 22.3069V3.4323C10 2.53886 11.0824 2.09385 11.7108 2.72892L15.7824 6.84361C16.7216 7.7927 18.0013 8.32673 19.3365 8.32673H29.6635C30.9987 8.32673 32.2784 7.7927 33.2176 6.84361L37.2892 2.72893C37.9176 2.09385 39 2.53886 39 3.4323Z" fill="black"/>
<rect x="15" y="18" width="4" height="4" rx="2" fill="white"/>
<rect x="30" y="18" width="4" height="4" rx="2" fill="white"/>
</svg>
