<svg width="24" height="25" viewBox="0 0 24 25" fill="none" xmlns="http://www.w3.org/2000/svg">
<path d="M13.2812 19.4687C13.0469 19.4687 12.8125 19.4375 12.5781 19.3594L3.20312 16.4375C2.21875 16.125 1.5625 15.2344 1.5625 14.2031V8.68749C1.5625 7.65624 2.21875 6.76562 3.20312 6.45312L12.5781 3.53124C13.2969 3.31249 14.0625 3.43749 14.6719 3.87499C15.2813 4.32812 15.625 5.01562 15.625 5.76562V17.1406C15.6271 17.4477 15.5684 17.7521 15.4523 18.0364C15.3362 18.3206 15.165 18.5791 14.9487 18.797C14.7323 19.0148 14.4749 19.1877 14.1914 19.3057C13.9079 19.4236 13.6039 19.4844 13.2969 19.4844L13.2812 19.4687ZM13.2812 4.96874C13.2031 4.96874 13.125 4.96874 13.0469 4.99999L3.67187 7.93749C3.34375 8.04687 3.125 8.34374 3.125 8.68749V14.2031C3.125 14.5469 3.34375 14.8437 3.67187 14.9531L13.0469 17.875C13.2813 17.9531 13.5469 17.9062 13.75 17.7656C13.9531 17.6094 14.0625 17.3906 14.0625 17.1406V5.74999C14.0651 5.62828 14.0379 5.50777 13.9835 5.39888C13.929 5.28999 13.8489 5.19598 13.75 5.12499C13.6177 5.02938 13.46 4.97502 13.2969 4.96874H13.2812ZM21.0938 12.5H17.9688C17.5312 12.5 17.1875 12.1562 17.1875 11.7187C17.1875 11.2812 17.5312 10.9375 17.9688 10.9375H21.0938C21.5312 10.9375 21.875 11.2812 21.875 11.7187C21.875 12.1562 21.5312 12.5 21.0938 12.5ZM17.1875 10.1562C17.085 10.1575 16.9834 10.1373 16.8893 10.0969C16.7951 10.0566 16.7104 9.99693 16.6406 9.92187C16.3281 9.60937 16.3281 9.12499 16.6406 8.81249L18.9844 6.46874C19.2969 6.15624 19.7812 6.15624 20.0938 6.46874C20.4062 6.78124 20.4062 7.26562 20.0938 7.57812L17.75 9.92187C17.5938 10.0781 17.3906 10.1562 17.2031 10.1562H17.1875ZM19.5312 17.1875C19.4288 17.1887 19.3272 17.1685 19.233 17.1282C19.1388 17.0878 19.0541 17.0282 18.9844 16.9531L16.6406 14.6094C16.3281 14.2969 16.3281 13.8125 16.6406 13.5C16.9531 13.1875 17.4375 13.1875 17.75 13.5L20.0938 15.8437C20.4062 16.1562 20.4062 16.6406 20.0938 16.9531C19.9375 17.1094 19.7344 17.1875 19.5469 17.1875H19.5312Z" fill="#0FA958"/>
<path d="M6.25 21.5938C4.53125 21.5938 3.125 20.1875 3.125 18.4687V15.9375H4.6875V18.4687C4.6875 19.3281 5.39062 20.0312 6.25 20.0312C7.10938 20.0312 7.8125 19.3281 7.8125 18.4687V17.8438H9.375V18.4687C9.375 20.1875 7.96875 21.5938 6.25 21.5938Z" fill="#0FA958"/>
</svg>
