<svg width="33" height="32" viewBox="0 0 24 23" fill="none" xmlns="http://www.w3.org/2000/svg">
<path d="M13.0673 17.9113C12.8367 17.9113 12.6061 17.8825 12.3755 17.8106L3.15152 15.1225C2.183 14.835 1.53732 14.0156 1.53732 13.0669V7.9925C1.53732 7.04375 2.183 6.22438 3.15152 5.93688L12.3755 3.24875C13.0826 3.0475 13.8359 3.1625 14.4355 3.565C15.035 3.98188 15.3733 4.61438 15.3733 5.30438V15.7694C15.3753 16.0519 15.3175 16.3319 15.2033 16.5935C15.0891 16.855 14.9207 17.0928 14.7078 17.2932C14.4949 17.4936 14.2417 17.6527 13.9628 17.7612C13.6839 17.8698 13.3848 17.9256 13.0826 17.9256L13.0673 17.9113ZM13.0673 4.57125C12.9904 4.57125 12.9135 4.57125 12.8367 4.6L3.61271 7.3025C3.28987 7.40313 3.07465 7.67625 3.07465 7.9925V13.0669C3.07465 13.3831 3.28987 13.6562 3.61271 13.7569L12.8367 16.445C13.0673 16.5169 13.3286 16.4738 13.5285 16.3444C13.7283 16.2006 13.8359 15.9994 13.8359 15.7694V5.29C13.8384 5.17802 13.8118 5.06715 13.7582 4.96697C13.7046 4.86679 13.6258 4.78031 13.5285 4.715C13.3983 4.62704 13.2432 4.57703 13.0826 4.57125H13.0673ZM20.7539 11.5H17.6792C17.2488 11.5 16.9106 11.1838 16.9106 10.7813C16.9106 10.3788 17.2488 10.0625 17.6792 10.0625H20.7539C21.1844 10.0625 21.5226 10.3788 21.5226 10.7813C21.5226 11.1838 21.1844 11.5 20.7539 11.5ZM16.9106 9.34375C16.8098 9.3449 16.7098 9.32631 16.6172 9.28917C16.5245 9.25204 16.4412 9.19718 16.3725 9.12813C16.0651 8.84063 16.0651 8.395 16.3725 8.1075L18.6785 5.95125C18.986 5.66375 19.4625 5.66375 19.77 5.95125C20.0775 6.23875 20.0775 6.68438 19.77 6.97188L17.464 9.12813C17.3103 9.27188 17.1104 9.34375 16.926 9.34375H16.9106ZM19.2166 15.8125C19.1158 15.8137 19.0158 15.7951 18.9231 15.7579C18.8305 15.7208 18.7471 15.6659 18.6785 15.5969L16.3725 13.4406C16.0651 13.1531 16.0651 12.7075 16.3725 12.42C16.68 12.1325 17.1566 12.1325 17.464 12.42L19.77 14.5763C20.0775 14.8638 20.0775 15.3094 19.77 15.5969C19.6163 15.7406 19.4164 15.8125 19.2319 15.8125H19.2166Z" fill="#666666"/>
<path d="M6.1493 19.8663C4.45824 19.8663 3.07465 18.5725 3.07465 16.9912V14.6625H4.61197V16.9912C4.61197 17.7819 5.30377 18.4287 6.1493 18.4287C6.99483 18.4287 7.68663 17.7819 7.68663 16.9912V16.4163H9.22395V16.9912C9.22395 18.5725 7.84036 19.8663 6.1493 19.8663Z" fill="#666666"/>
</svg>
