<svg width="17" height="18" viewBox="0 0 14 15" fill="none" xmlns="http://www.w3.org/2000/svg">
<path d="M9.73438 2.10938C8.6357 2.10938 7.66062 2.57402 7 3.37266C6.33938 2.57402 5.3643 2.10938 4.26562 2.10938C3.30871 2.11062 2.39133 2.51845 1.71469 3.24342C1.03805 3.96839 0.657408 4.9513 0.65625 5.97656C0.65625 10.2152 6.44273 13.602 6.68883 13.7443C6.78446 13.7995 6.89138 13.8284 7 13.8284C7.10862 13.8284 7.21554 13.7995 7.31117 13.7443C7.55727 13.602 13.3438 10.2152 13.3438 5.97656C13.3426 4.9513 12.9619 3.96839 12.2853 3.24342C11.6087 2.51845 10.6913 2.11062 9.73438 2.10938ZM9.43414 10.4508C8.67249 11.1433 7.85829 11.7665 7 12.3141C6.14171 11.7665 5.32751 11.1433 4.56586 10.4508C3.38078 9.36152 1.96875 7.70039 1.96875 5.97656C1.96875 5.32388 2.21074 4.69793 2.64149 4.23642C3.07224 3.7749 3.65646 3.51563 4.26562 3.51563C5.23906 3.51563 6.05391 4.06641 6.39242 4.95352C6.44169 5.08284 6.5258 5.1935 6.63401 5.2714C6.74222 5.3493 6.86963 5.39091 7 5.39091C7.13037 5.39091 7.25778 5.3493 7.36599 5.2714C7.4742 5.1935 7.55831 5.08284 7.60758 4.95352C7.94609 4.06641 8.76094 3.51563 9.73438 3.51563C10.3435 3.51563 10.9278 3.7749 11.3585 4.23642C11.7893 4.69793 12.0312 5.32388 12.0312 5.97656C12.0312 7.70039 10.6192 9.36152 9.43414 10.4508Z" fill="#E51B1B"/>
<path d="M7 5.5C7 6.88071 5.88071 8 4.5 8C3.11929 8 2 6.88071 2 5.5C2 4.11929 3.11929 3 4.5 3C5.88071 3 7 4.11929 7 5.5Z" fill="#E51B1B"/>
<path d="M10 9C10 11.2091 8.65685 13 7 13C5.34315 13 4 11.2091 4 9C4 6.79086 5.34315 5 7 5C8.65685 5 10 6.79086 10 9Z" fill="#E51B1B"/>
<path d="M12 5.5C12 6.88071 10.8807 8 9.5 8C8.11929 8 7 6.88071 7 5.5C7 4.11929 8.11929 3 9.5 3C10.8807 3 12 4.11929 12 5.5Z" fill="#E51B1B"/>
<path d="M1 5.85006L2.81036 5L5.36055 10.4311L3.55019 11.2811L1 5.85006Z" fill="#E51B1B"/>
<path d="M12.7072 6.01281L10.5502 5L8.00004 10.4311L10.157 11.4439L12.7072 6.01281Z" fill="#E51B1B"/>
</svg>
