<?xml version="1.0" standalone="no"?>
<!DOCTYPE svg PUBLIC "-//W3C//DTD SVG 1.0//EN" "http://www.w3.org/TR/2001/REC-SVG-20010904/DTD/svg10.dtd">
<svg xmlns="http://www.w3.org/2000/svg" xmlns:xlink="http://www.w3.org/1999/xlink" id="body_1" width="15" height="15">

<g transform="matrix(0.625 0 0 0.625 0 0)">
	<g>
	</g>
	<g>
	</g>
	<g>
        <path d="M14 20.408C 13.508 20.716002 13.097 20.954 12.808 21.117C 12.655 21.203001 12.5 21.287 12.344999 21.369001L12.344999 21.369001L12.342999 21.369001C 15.327776 21.369003 18.085823 22.96136 19.578209 25.546253C 21.070597 28.131145 21.070597 31.315863 19.578209 33.900753C 18.085821 36.485645 15.327776 38.078003 12.342999 38.078003L12.342999 38.078003L43.489998 69.225006L12.344999 21.369001L12.342999 21.369001C 3.8 15.572 1 12.331 1 8.513C 1 5.052 3.829 2.5 6.736 2.5C 9.03 2.5 10.881 3.726 12 5.605C 13.12 3.726 14.97 2.5 17.264 2.5C 20.17 2.5 23 5.052 23 8.514C 23 12.332 20.199 15.573999 17.611 17.776001L17.611 17.776001L14 20.408z" stroke="#E01B24" stroke-width="1" fill="#E01B24" fill-rule="nonzero" />
	</g>
</g>
</svg>
