<svg width="15" height="15" viewBox="0 0 15 15" fill="none" xmlns="http://www.w3.org/2000/svg">
<path d="M7.5 13.125C8.61252 13.125 9.70006 12.7951 10.6251 12.177C11.5501 11.5589 12.2711 10.6804 12.6968 9.6526C13.1226 8.62476 13.234 7.49376 13.0169 6.40262C12.7999 5.31148 12.2641 4.3092 11.4775 3.52253C10.6908 2.73586 9.68853 2.20013 8.59738 1.98309C7.50624 1.76604 6.37524 1.87744 5.34741 2.30318C4.31957 2.72892 3.44107 3.44989 2.82298 4.37492C2.2049 5.29995 1.875 6.38748 1.875 7.5C1.875 8.43 2.1 9.30688 2.5 10.0794L1.875 13.125L4.92063 12.5C5.69313 12.9 6.57063 13.125 7.5 13.125Z" stroke="#666666" stroke-width="1.5" stroke-linecap="round" stroke-linejoin="round"/>
</svg>
