<svg width="40" height="42" viewBox="0 0 40 42" fill="none" xmlns="http://www.w3.org/2000/svg">
<rect x="1" y="1" width="38" height="39.1429" rx="4" stroke="black" stroke-width="2"/>
<path d="M31.4286 9.84277V33.7857C31.4286 34.6884 30.327 35.129 29.7044 34.4754L26.0098 30.596C25.8211 30.3979 25.5594 30.2857 25.2857 30.2857H16.5714C12.1531 30.2857 8.57141 26.704 8.57141 22.2857V9.84277C8.57141 8.95187 9.64855 8.5057 10.2785 9.13567L12.8212 11.6784C13.7589 12.6161 15.0307 13.1428 16.3568 13.1428H23.6432C24.9693 13.1428 26.2411 12.6161 27.1787 11.6784L29.7214 9.13566C30.3514 8.5057 31.4286 8.95187 31.4286 9.84277Z" stroke="black" stroke-width="2"/>
<rect x="12.5714" y="20.5714" width="3.42857" height="3.42857" rx="1.71429" fill="black"/>
<rect x="24" y="20.5714" width="3.42857" height="3.42857" rx="1.71429" fill="black"/>
</svg>
