<svg width="25" height="25" viewBox="0 0 30 30" fill="none" xmlns="http://www.w3.org/2000/svg">
<path fill-rule="evenodd" clip-rule="evenodd" d="M23.7493 1.3734C25.6417 0.306264 28 1.65349 28 3.80457V21.3857C28 23.5354 25.6431 24.884 23.7493 23.8169L18.0553 20.6099V4.58041L23.7493 1.3734ZM15.2139 5.59293H8.11053C6.34897 5.59119 4.64958 6.23473 3.34227 7.39862C2.03497 8.56252 1.21301 10.1637 1.03598 11.8914C0.858944 13.6191 1.33946 15.35 2.38424 16.7481C3.42901 18.1462 4.96352 19.1118 6.68986 19.4573V24.4989C6.68986 25.4274 7.06405 26.318 7.73012 26.9746C8.3962 27.6311 9.29958 28 10.2415 28C11.1835 28 12.0869 27.6311 12.753 26.9746C13.419 26.318 13.7932 25.4274 13.7932 24.4989V19.5973H15.2139V5.59293Z" fill="black"/>
</svg>
