<svg width="20" height="20" viewBox="0 0 30 30" fill="none" xmlns="http://www.w3.org/2000/svg">
<path d="M16.5294 18.2567V7.43315M16.5294 18.2567L23.976 22.5117C24.1817 22.6292 24.4147 22.6906 24.6516 22.6898C24.8886 22.689 25.1211 22.626 25.326 22.5071C25.531 22.3882 25.7011 22.2176 25.8194 22.0123C25.9376 21.807 25.9999 21.5743 26 21.3373V4.35251C25.9999 4.11558 25.9376 3.88283 25.8194 3.67754C25.7011 3.47225 25.531 3.30162 25.326 3.18271C25.1211 3.06381 24.8886 3.00081 24.6516 3.00001C24.4147 2.99921 24.1817 3.06064 23.976 3.17815L16.5294 7.43315M16.5294 18.2567H12.4706M16.5294 7.43315H8.41176C6.97648 7.43315 5.59997 8.00332 4.58507 9.01822C3.57017 10.0331 3 11.4096 3 12.8449C3 14.2802 3.57017 15.6567 4.58507 16.6716C5.59997 17.6865 6.97648 18.2567 8.41176 18.2567M12.4706 18.2567V24.3449C12.4706 24.8831 12.2568 25.3993 11.8762 25.7799C11.4956 26.1605 10.9794 26.3743 10.4412 26.3743C9.90294 26.3743 9.38675 26.1605 9.00617 25.7799C8.62558 25.3993 8.41176 24.8831 8.41176 24.3449V18.2567M12.4706 18.2567H8.41176" stroke="#A1A1A1" stroke-width="3" stroke-linecap="round" stroke-linejoin="round"/>
</svg>
