<svg width="15" height="15" viewBox="0 0 15 15" fill="none" xmlns="http://www.w3.org/2000/svg">
<g clip-path="url(#clip0_545_93)">
<path d="M5.0625 3.4375C5.0625 2.79103 5.31931 2.17105 5.77643 1.71393C6.23355 1.25681 6.85353 1 7.5 1C8.14647 1 8.76645 1.25681 9.22357 1.71393C9.68069 2.17105 9.9375 2.79103 9.9375 3.4375M5.0625 3.4375H9.9375M5.0625 3.4375H2.625M9.9375 3.4375H12.375M2.625 3.4375H1M2.625 3.4375V12.375C2.625 12.806 2.7962 13.2193 3.10095 13.524C3.4057 13.8288 3.81902 14 4.25 14H10.75C11.181 14 11.5943 13.8288 11.899 13.524C12.2038 13.2193 12.375 12.806 12.375 12.375V3.4375M12.375 3.4375H14" stroke="#666666" stroke-width="1.5" stroke-linecap="round" stroke-linejoin="round"/>
</g>
<defs>
<clipPath id="clip0_545_93">
<rect width="15" height="15" fill="white"/>
</clipPath>
</defs>
</svg>
