<svg width="20" height="20" viewBox="0 0 20 20" fill="none" xmlns="http://www.w3.org/2000/svg">
<path d="M4 18V3.77778C4 3.28889 4.168 2.87052 4.504 2.52267C4.84 2.17481 5.24343 2.00059 5.71429 2H14.2857C14.7571 2 15.1609 2.17422 15.4969 2.52267C15.8329 2.87111 16.0006 3.28948 16 3.77778V18L10 15.3333L4 18ZM5.71429 15.2889L10 13.3778L14.2857 15.2889V3.77778H5.71429V15.2889Z" fill="#A1A1A1"/>
<path d="M3.5 18.5V3.38889C3.5 2.86944 3.682 2.42493 4.046 2.05533C4.41 1.68574 4.84705 1.50063 5.35714 1.5H14.6429C15.1536 1.5 15.5909 1.68511 15.9549 2.05533C16.3189 2.42556 16.5006 2.87007 16.5 3.38889V18.5L10 15.6667L3.5 18.5ZM5.35714 15.6194L10 13.5889L14.6429 15.6194V3.38889H5.35714V15.6194Z" fill="#A1A1A1"/>
</svg>
