<svg width="28" height="28" viewBox="0 0 30 30" fill="none" xmlns="http://www.w3.org/2000/svg">
<path d="M18.3333 23.6C17.4 23.6 16.6111 23.2737 15.9667 22.6212C15.3222 21.9687 15 21.17 15 20.225C15 19.28 15.3222 18.4812 15.9667 17.8287C16.6111 17.1762 17.4 16.85 18.3333 16.85C19.2667 16.85 20.0556 17.1762 20.7 17.8287C21.3444 18.4812 21.6667 19.28 21.6667 20.225C21.6667 21.17 21.3444 21.9687 20.7 22.6212C20.0556 23.2737 19.2667 23.6 18.3333 23.6ZM5.66667 29C4.93333 29 4.30578 28.7358 3.784 28.2075C3.26222 27.6792 3.00089 27.0434 3 26.3V7.4C3 6.6575 3.26133 6.0221 3.784 5.4938C4.30667 4.9655 4.93422 4.7009 5.66667 4.7H7V2H9.66667V4.7H20.3333V2H23V4.7H24.3333C25.0667 4.7 25.6947 4.9646 26.2173 5.4938C26.74 6.023 27.0009 6.6584 27 7.4V26.3C27 27.0425 26.7391 27.6783 26.2173 28.2075C25.6956 28.7367 25.0676 29.0009 24.3333 29H5.66667ZM5.66667 26.3H24.3333V12.8H5.66667V26.3Z" fill="black"/>
</svg>
