<svg width="30" height="30" viewBox="0 0 30 30" fill="none" xmlns="http://www.w3.org/2000/svg">
<path d="M13.125 25C13.125 25.4973 13.3225 25.9742 13.6742 26.3258C14.0258 26.6775 14.5027 26.875 15 26.875C15.4973 26.875 15.9742 26.6775 16.3258 26.3258C16.6775 25.9742 16.875 25.4973 16.875 25V16.875H25C25.4973 16.875 25.9742 16.6775 26.3258 16.3258C26.6775 15.9742 26.875 15.4973 26.875 15C26.875 14.5027 26.6775 14.0258 26.3258 13.6742C25.9742 13.3225 25.4973 13.125 25 13.125H16.875V5C16.875 4.50272 16.6775 4.02581 16.3258 3.67417C15.9742 3.32254 15.4973 3.125 15 3.125C14.5027 3.125 14.0258 3.32254 13.6742 3.67417C13.3225 4.02581 13.125 4.50272 13.125 5V13.125H5C4.50272 13.125 4.02581 13.3225 3.67417 13.6742C3.32254 14.0258 3.125 14.5027 3.125 15C3.125 15.4973 3.32254 15.9742 3.67417 16.3258C4.02581 16.6775 4.50272 16.875 5 16.875H13.125V25Z" fill="black"/>
</svg>
