<?xml version="1.0" standalone="no"?>
<!DOCTYPE svg PUBLIC "-//W3C//DTD SVG 1.0//EN" "http://www.w3.org/TR/2001/REC-SVG-20010904/DTD/svg10.dtd">
<svg xmlns="http://www.w3.org/2000/svg" xmlns:xlink="http://www.w3.org/1999/xlink" id="body_1" width="24" height="24">

<g transform="matrix(0.48 0 0 0.48 0 0)">
	<g transform="matrix(2.0833335 0 0 2.0833335 0 0)">
		<path  d="M0 0L24 0L24 24L0 24L0 0z" stroke="none"  fill="none" />
		<path transform="matrix(1 0 0 1 3.25 2.25)" d="M6 17L6 16.5L2.25 16.5C 1.0080444 16.498346 0.0016524792 15.491955 0 14.25L0 14.25L0 13.868C -0.0039987564 12.897433 0.5450237 12.009297 1.415 11.579C 1.8028697 11.385244 2.0622563 11.003926 2.1 10.572L2.1 10.572L2.546 5.6619997C 2.7164826 3.7855036 3.7274652 2.0871162 5.2957125 1.042654C 6.86396 -0.0018076897 8.820798 -0.28000546 10.618 0.286C 10.3437605 0.7124038 10.130054 1.1748176 9.983 1.66C 9.5806875 1.5533695 9.166204 1.4995837 8.75 1.5C 6.3008547 1.4885111 4.253413 3.359712 4.045 5.8L4.045 5.8L3.6 10.708C 3.5158563 11.658136 2.9434707 12.496069 2.089 12.92C 1.7275846 13.097938 1.4990473 13.466159 1.5 13.869L1.5 13.869L1.5 14.251C 1.5011013 14.664595 1.8364043 14.999451 2.25 15L2.25 15L15.25 15C 15.663985 14.999449 15.999449 14.663985 16 14.25L16 14.25L16 13.868C 16.00161 13.466057 15.774257 13.098258 15.414 12.92C 14.558368 12.496856 13.984746 11.658776 13.9 10.708L13.9 10.708L13.7 8.528C 14.195687 8.673311 14.709453 8.747715 15.226 8.749L15.226 8.749L15.392 10.570999C 15.433036 11.001531 15.692011 11.380932 16.078001 11.575999C 16.948635 12.006525 17.498629 12.894736 17.496 13.865999L17.496 13.865999L17.496 14.247999C 17.494898 15.490183 16.488184 16.496897 15.246 16.498L15.246 16.498L11.5 16.498L11.5 17C 11.5 18.518784 10.268783 19.75 8.75 19.75C 7.2312164 19.75 6 18.518784 6 17zM7.5 17C 7.5 17.690355 8.059644 18.25 8.75 18.25C 9.440356 18.25 10 17.690355 10 17L10 17L10 16.5L7.5 16.5zM15.047 6.744C 14.502121 6.712569 13.972234 6.5536375 13.5 6.28L13.5 6.28L13.456 5.8C 13.349201 4.562251 12.756689 3.4171348 11.808001 2.6150002C 11.903411 2.1031759 12.111806 1.6190841 12.418 1.1980002C 13.865045 2.252319 14.787691 3.8789747 14.95 5.662L14.95 5.662L15.05 6.743z" stroke="none"  fill="#141124" fill-rule="nonzero" />
		<path transform="matrix(1 0 0 1 15 2)" d="M3.5 7C 2.084382 7 0.80815506 6.147252 0.2664218 4.8393917C -0.2753117 3.5315316 0.024133444 2.0261192 1.0251262 1.0251262C 2.0261192 0.024133444 3.5315316 -0.2753117 4.8393917 0.2664218C 6.147252 0.80815506 7 2.084382 7 3.5C 7 5.4329967 5.4329967 7 3.5 7z" stroke="none"  fill="#FF6359" fill-rule="nonzero" />
	</g>
</g>
</svg>
