<?xml version="1.0" standalone="no"?>
<!DOCTYPE svg PUBLIC "-//W3C//DTD SVG 1.0//EN" "http://www.w3.org/TR/2001/REC-SVG-20010904/DTD/svg10.dtd">
<svg xmlns="http://www.w3.org/2000/svg" xmlns:xlink="http://www.w3.org/1999/xlink" id="body_1" width="24" height="24">

<g transform="matrix(0.48 0 0 0.48 0 0)">
	<g transform="matrix(2.0833335 0 0 2.0833335 0 0)">
		<path  d="M0 0L24 0L24 24L0 24L0 0z" stroke="none"  fill="none" />
		<path transform="matrix(1 0 0 1 3.25 2.25)" d="M6 17L6 16.5L2.25 16.5C 1.0080444 16.498346 0.0016524792 15.491955 0 14.25L0 14.25L0 13.868C -0.0039987564 12.897433 0.5450237 12.009297 1.415 11.579C 1.8027375 11.385093 2.062067 11.003859 2.1 10.572L2.1 10.572L2.546 5.6619997C 2.8344722 2.4529452 5.524004 -0.0056610107 8.745999 -0.0056610107C 11.967994 -0.0056610107 14.657526 2.4529452 14.945999 5.6619997L14.945999 5.6619997L15.391999 10.572C 15.433034 11.002529 15.692008 11.38193 16.078 11.577C 16.948633 12.007526 17.498627 12.895738 17.495998 13.867L17.495998 13.867L17.495998 14.249C 17.494896 15.491183 16.488182 16.497898 15.245998 16.499L15.245998 16.499L11.5 16.499L11.5 17C 11.5 18.518784 10.268783 19.75 8.75 19.75C 7.2312164 19.75 6 18.518784 6 17zM7.5 17C 7.5 17.690355 8.059644 18.25 8.75 18.25C 9.440356 18.25 10 17.690355 10 17L10 17L10 16.5L7.5 16.5zM4.045 5.8L3.6 10.708C 3.5160465 11.658204 2.9436028 12.496222 2.089 12.92C 1.7275846 13.097938 1.4990473 13.466159 1.5 13.869L1.5 13.869L1.5 14.251C 1.5011013 14.664595 1.8364043 14.999451 2.25 15L2.25 15L15.25 15C 15.663985 14.999449 15.999449 14.663985 16 14.25L16 14.25L16 13.868C 16.001371 13.466124 15.77409 13.098441 15.414 12.92C 14.558368 12.496856 13.984746 11.658776 13.9 10.708L13.9 10.708L13.456 5.8C 13.234245 3.3667028 11.193882 1.5038285 8.7505 1.5038285C 6.3071184 1.5038285 4.2667546 3.3667028 4.045 5.8z" stroke="none"  fill="#141124" fill-rule="nonzero" />
	</g>
</g>
</svg>
