<svg width="25" height="25" viewBox="0 0 25 25" fill="none" xmlns="http://www.w3.org/2000/svg">
<path d="M4.94792 3.125H20.0521C21.0583 3.125 21.875 3.94167 21.875 4.94792V20.0521C21.875 20.5356 21.6829 20.9992 21.3411 21.3411C20.9992 21.6829 20.5356 21.875 20.0521 21.875H4.94792C4.46445 21.875 4.00078 21.6829 3.65892 21.3411C3.31706 20.9992 3.125 20.5356 3.125 20.0521V4.94792C3.125 3.94167 3.94167 3.125 4.94792 3.125ZM20.0521 4.6875H4.94792C4.87885 4.6875 4.81261 4.71494 4.76377 4.76377C4.71494 4.81261 4.6875 4.87885 4.6875 4.94792V20.0521C4.6875 20.1958 4.80417 20.3125 4.94792 20.3125H5.14583L15.3781 10.0802C15.5474 9.91091 15.7484 9.77662 15.9695 9.685C16.1907 9.59338 16.4278 9.54622 16.6672 9.54622C16.9066 9.54622 17.1437 9.59338 17.3648 9.685C17.586 9.77662 17.787 9.91091 17.9563 10.0802L20.3125 12.4365V4.94792C20.3125 4.87885 20.2851 4.81261 20.2362 4.76377C20.1874 4.71494 20.1211 4.6875 20.0521 4.6875ZM20.3125 14.6458L16.851 11.1844C16.8269 11.1601 16.7981 11.1409 16.7665 11.1278C16.7348 11.1146 16.7009 11.1079 16.6667 11.1079C16.6324 11.1079 16.5985 11.1146 16.5669 11.1278C16.5352 11.1409 16.5065 11.1601 16.4823 11.1844L7.35521 20.3125H20.0521C20.1211 20.3125 20.1874 20.2851 20.2362 20.2362C20.2851 20.1874 20.3125 20.1211 20.3125 20.0521V14.6458ZM8.85417 11.4583C8.1635 11.4583 7.50112 11.184 7.01274 10.6956C6.52437 10.2072 6.25 9.54483 6.25 8.85417C6.25 8.1635 6.52437 7.50112 7.01274 7.01274C7.50112 6.52437 8.1635 6.25 8.85417 6.25C9.54483 6.25 10.2072 6.52437 10.6956 7.01274C11.184 7.50112 11.4583 8.1635 11.4583 8.85417C11.4583 9.54483 11.184 10.2072 10.6956 10.6956C10.2072 11.184 9.54483 11.4583 8.85417 11.4583ZM8.85417 9.89583C9.13043 9.89583 9.39539 9.78609 9.59074 9.59074C9.78609 9.39539 9.89583 9.13043 9.89583 8.85417C9.89583 8.5779 9.78609 8.31295 9.59074 8.1176C9.39539 7.92225 9.13043 7.8125 8.85417 7.8125C8.5779 7.8125 8.31295 7.92225 8.1176 8.1176C7.92225 8.31295 7.8125 8.5779 7.8125 8.85417C7.8125 9.13043 7.92225 9.39539 8.1176 9.59074C8.31295 9.78609 8.5779 9.89583 8.85417 9.89583Z" fill="#699BF7"/>
</svg>
