<svg width="14" height="15" viewBox="0 0 14 15" fill="none" xmlns="http://www.w3.org/2000/svg">
<path d="M9.38672 2.10938C8.32729 2.10938 7.38703 2.57402 6.75 3.37266C6.11297 2.57402 5.17271 2.10938 4.11328 2.10938C3.19055 2.11062 2.30592 2.51845 1.65345 3.24342C1.00098 3.96839 0.633929 4.9513 0.632812 5.97656C0.632813 10.2152 6.21264 13.602 6.44994 13.7443C6.54216 13.7995 6.64526 13.8284 6.75 13.8284C6.85474 13.8284 6.95784 13.7995 7.05006 13.7443C7.28736 13.602 12.8672 10.2152 12.8672 5.97656C12.8661 4.9513 12.499 3.96839 11.8465 3.24342C11.1941 2.51845 10.3095 2.11062 9.38672 2.10938ZM9.09721 10.4508C8.36276 11.1433 7.57764 11.7665 6.75 12.3141C5.92236 11.7665 5.13724 11.1433 4.40279 10.4508C3.26004 9.36152 1.89844 7.70039 1.89844 5.97656C1.89844 5.32388 2.13179 4.69793 2.54715 4.23642C2.96251 3.7749 3.52587 3.51563 4.11328 3.51563C5.05195 3.51563 5.8377 4.06641 6.16412 4.95352C6.21163 5.08284 6.29273 5.1935 6.39708 5.2714C6.50142 5.3493 6.62429 5.39091 6.75 5.39091C6.87571 5.39091 6.99858 5.3493 7.10292 5.2714C7.20727 5.1935 7.28837 5.08284 7.33588 4.95352C7.6623 4.06641 8.44805 3.51563 9.38672 3.51563C9.97413 3.51563 10.5375 3.7749 10.9529 4.23642C11.3682 4.69793 11.6016 5.32388 11.6016 5.97656C11.6016 7.70039 10.24 9.36152 9.09721 10.4508Z" fill="#666666"/>
</svg>
