<svg width="20" height="20" viewBox="0 0 20 20" fill="none" xmlns="http://www.w3.org/2000/svg">
<path d="M19.3516 7.28619L13.5009 1.22234C13.3639 1.08015 13.178 1.00018 12.9841 1H1.73133C1.33154 1 1 1.34362 1 1.75798V9.72183C1 9.92396 1.07801 10.116 1.21452 10.2575L7.06518 16.3112C7.27451 16.5299 7.52368 16.7032 7.79821 16.8212C8.07274 16.9392 8.36716 16.9994 8.66436 16.9984C9.26892 16.9984 9.84424 16.7559 10.2635 16.3112L10.4781 16.0889C10.5171 16.1697 10.5561 16.2506 10.6243 16.3112C10.8349 16.5296 11.085 16.7028 11.3602 16.821C11.6355 16.9392 11.9305 17 12.2284 17C12.5263 17 12.8213 16.9392 13.0965 16.821C13.3717 16.7028 13.6218 16.5296 13.8324 16.3112L19.3418 10.6011C20.2194 9.69151 20.2194 8.20587 19.3418 7.28619H19.3516ZM9.23967 15.2399C9.08365 15.4016 8.88863 15.4825 8.67411 15.4825C8.45958 15.4825 8.25481 15.3915 8.10855 15.2399L2.46266 9.40853V2.51596H9.11291L14.749 8.35747C15.0611 8.68087 15.0611 9.2064 14.749 9.52981L9.23967 15.2399ZM18.3179 9.52981L12.8086 15.2399C12.4965 15.5633 11.9797 15.5633 11.6677 15.2399C11.6033 15.1745 11.5271 15.123 11.4434 15.0883L15.7729 10.6011C16.6505 9.68141 16.6505 8.19576 15.7729 7.28619L11.1704 2.51596H12.6721L18.3082 8.35747C18.6202 8.68087 18.6202 9.2064 18.3082 9.52981H18.3179ZM6.85065 5.46703C6.85065 5.80208 6.72224 6.12341 6.49365 6.36032C6.26507 6.59724 5.95504 6.73033 5.63177 6.73033C5.3085 6.73033 4.99847 6.59724 4.76989 6.36032C4.5413 6.12341 4.41288 5.80208 4.41288 5.46703C4.41288 5.13198 4.5413 4.81066 4.76989 4.57374C4.99847 4.33683 5.3085 4.20373 5.63177 4.20373C5.95504 4.20373 6.26507 4.33683 6.49365 4.57374C6.72224 4.81066 6.85065 5.13198 6.85065 5.46703Z" fill="#666666"/>
</svg>
