<svg width="25" height="25" viewBox="0 0 25 25" fill="none" xmlns="http://www.w3.org/2000/svg">
<path d="M21.9479 10.7292L15.6979 4.47917C15.5515 4.33261 15.353 4.25018 15.1458 4.25H3.125C2.69792 4.25 2.34375 4.60417 2.34375 5.03125V13.2396C2.34375 13.4479 2.42708 13.6458 2.57292 13.7917L8.82292 20.0312C9.04653 20.2566 9.31271 20.4353 9.60598 20.5569C9.89925 20.6785 10.2138 20.7406 10.5312 20.7396C11.1771 20.7396 11.7917 20.4896 12.2396 20.0312L12.4688 19.8021C12.5104 19.8854 12.5521 19.9687 12.625 20.0312C12.85 20.2563 13.1171 20.4349 13.4111 20.5567C13.7052 20.6785 14.0203 20.7412 14.3385 20.7412C14.6568 20.7412 14.9719 20.6785 15.2659 20.5567C15.5599 20.4349 15.8271 20.2563 16.0521 20.0312L21.9375 14.1458C22.875 13.2083 22.875 11.6771 21.9375 10.7292H21.9479ZM11.1458 18.9271C10.9792 19.0938 10.7708 19.1771 10.5417 19.1771C10.3125 19.1771 10.0937 19.0833 9.9375 18.9271L3.90625 12.9167V5.8125H11.0104L17.0312 11.8333C17.3646 12.1667 17.3646 12.7083 17.0312 13.0417L11.1458 18.9271ZM20.8438 13.0417L14.9583 18.9271C14.625 19.2604 14.0729 19.2604 13.7396 18.9271C13.6708 18.8597 13.5894 18.8066 13.5 18.7708L18.125 14.1458C19.0625 13.1979 19.0625 11.6667 18.125 10.7292L13.2083 5.8125H14.8125L20.8333 11.8333C21.1667 12.1667 21.1667 12.7083 20.8333 13.0417H20.8438ZM8.59375 8.85417C8.59375 9.1995 8.45657 9.53069 8.21238 9.77488C7.96819 10.0191 7.637 10.1562 7.29167 10.1562C6.94633 10.1562 6.61514 10.0191 6.37095 9.77488C6.12677 9.53069 5.98958 9.1995 5.98958 8.85417C5.98958 8.50883 6.12677 8.17764 6.37095 7.93345C6.61514 7.68927 6.94633 7.55208 7.29167 7.55208C7.637 7.55208 7.96819 7.68927 8.21238 7.93345C8.45657 8.17764 8.59375 8.50883 8.59375 8.85417Z" fill="#F24E1E"/>
</svg>
