<svg width="20" height="20" viewBox="0 0 20 20" fill="none" xmlns="http://www.w3.org/2000/svg">
<path d="M15.8333 17.5H4.16665C3.94563 17.5 3.73367 17.4122 3.57739 17.2559C3.42111 17.0996 3.33331 16.8877 3.33331 16.6667V9.16666H0.833313L9.43915 1.34333C9.59257 1.20373 9.79255 1.12637 9.99998 1.12637C10.2074 1.12637 10.4074 1.20373 10.5608 1.34333L19.1666 9.16666H16.6666V16.6667C16.6666 16.8877 16.5789 17.0996 16.4226 17.2559C16.2663 17.4122 16.0543 17.5 15.8333 17.5ZM4.99998 15.8333H15V7.63083L9.99998 3.08583L4.99998 7.63083V15.8333ZM6.66665 12.5H13.3333V14.1667H6.66665V12.5Z" fill="white"/>
</svg>
