<svg width="15" height="15" viewBox="0 0 15 15" fill="none" xmlns="http://www.w3.org/2000/svg">
<g clip-path="url(#clip0_545_88)">
<path d="M9.05693 2.55068L12.4493 5.94307M1 14H4.39239L13.2974 5.09498C13.5202 4.87223 13.6969 4.60779 13.8174 4.31676C13.938 4.02572 14 3.71379 14 3.39878C14 3.08377 13.938 2.77184 13.8174 2.48081C13.6969 2.18977 13.5202 1.92533 13.2974 1.70259C13.0747 1.47984 12.8102 1.30315 12.5192 1.1826C12.2282 1.06205 11.9162 1 11.6012 1C11.2862 1 10.9743 1.06205 10.6832 1.1826C10.3922 1.30315 10.1278 1.47984 9.90502 1.70259L1 10.6076V14Z" stroke="#666666" stroke-width="1.5" stroke-linecap="round" stroke-linejoin="round"/>
</g>
<defs>
<clipPath id="clip0_545_88">
<rect width="15" height="15" fill="white"/>
</clipPath>
</defs>
</svg>
