<svg width="22" height="22" viewBox="0 0 30 30" fill="none" xmlns="http://www.w3.org/2000/svg">
<path d="M11.2863 3C12.4273 3.00024 13.5216 3.45471 14.3283 4.26344L22.5177 12.4708C23.4347 13.3899 23.9499 14.6365 23.9499 15.9363C23.9499 17.236 23.4347 18.4826 22.5177 19.4017L17.366 24.5647C16.4488 25.4837 15.205 26 13.9081 26C12.6111 26 11.3673 25.4837 10.4501 24.5647L2.26069 16.3574C1.45372 15.5489 1.00024 14.4523 1 13.3088V7.31209C1 6.16845 1.45332 5.07165 2.26023 4.26298C3.06714 3.45431 4.16154 3 5.30269 3H11.2863ZM8.17115 8.74945H8.1568C7.77642 8.75136 7.41238 8.90462 7.14475 9.17553C6.87712 9.44643 6.72784 9.81279 6.72974 10.194C6.73165 10.5752 6.88458 10.9401 7.15489 11.2083C7.42521 11.4765 7.79076 11.6261 8.17115 11.6242C8.55153 11.6242 8.91633 11.4727 9.1853 11.2032C9.45427 10.9336 9.60537 10.568 9.60537 10.1868C9.60537 9.8056 9.45427 9.44 9.1853 9.17044C8.91633 8.90089 8.55153 8.74945 8.17115 8.74945Z" fill="black"/>
<path d="M18.6309 3.42118C18.8998 3.15171 19.2646 3.00034 19.6449 3.00034C20.0252 3.00034 20.3899 3.15171 20.6589 3.42118L27.2463 10.0215C28.8114 11.5903 29.6906 13.7179 29.6906 15.9363C29.6906 18.1547 28.8114 20.2823 27.2463 21.851L24.963 24.1393C24.6925 24.4011 24.3302 24.546 23.9542 24.5427C23.5781 24.5395 23.2184 24.3883 22.9525 24.1218C22.6866 23.8553 22.5357 23.4948 22.5325 23.1179C22.5292 22.7411 22.6738 22.378 22.935 22.1069L25.2183 19.8186C26.2456 18.7889 26.8228 17.3924 26.8228 15.9363C26.8228 14.4802 26.2456 13.0837 25.2183 12.054L18.6323 5.45361C18.3634 5.18406 18.2124 4.81853 18.2124 4.43739C18.2124 4.05625 18.362 3.69072 18.6309 3.42118Z" fill="black"/>
</svg>
