<svg width="27" height="27" viewBox="0 0 30 30" fill="none" xmlns="http://www.w3.org/2000/svg">
<path d="M3 7.55504V13.3483C3.00016 14.0848 3.29286 14.7911 3.81373 15.3118L11.7427 23.2408C12.3703 23.8683 13.2214 24.2208 14.1089 24.2208C14.9964 24.2208 15.8475 23.8683 16.4751 23.2408L21.463 18.2529C22.0905 17.6253 22.443 16.7742 22.443 15.8867C22.443 14.9992 22.0905 14.1481 21.463 13.5205L13.534 5.59154C13.0133 5.07068 12.307 4.77797 11.5705 4.77782H5.77723C5.04066 4.77782 4.33426 5.07042 3.81343 5.59125C3.2926 6.11208 3 6.81848 3 7.55504Z" stroke="#A1A1A1" stroke-width="3" stroke-linecap="round" stroke-linejoin="round"/>
<path d="M23.8292 22.8298L26.0398 20.6191C27.2948 19.3639 27.9998 17.6617 27.9998 15.8867C27.9998 14.1118 27.2948 12.4095 26.0398 11.1543L19.6633 4.77782M8.55441 10.3323H8.54053" stroke="#A1A1A1" stroke-width="3" stroke-linecap="round" stroke-linejoin="round"/>
</svg>
