<svg width="18" height="18" viewBox="0 0 15 15" fill="none" xmlns="http://www.w3.org/2000/svg">
<path d="M13.5669 7.05812L8.56687 2.05812C8.47947 1.97074 8.36811 1.91124 8.24689 1.88713C8.12567 1.86303 8.00003 1.8754 7.88584 1.9227C7.77165 1.96999 7.67405 2.05008 7.60537 2.15283C7.5367 2.25559 7.50003 2.3764 7.5 2.5V4.71562C5.79268 4.87362 4.20577 5.66303 3.04981 6.92939C1.89385 8.19574 1.25204 9.84789 1.25 11.5625V12.5C1.2501 12.6297 1.29057 12.7562 1.3658 12.8619C1.44102 12.9676 1.54728 13.0473 1.66983 13.0899C1.79238 13.1325 1.92514 13.1359 2.04971 13.0996C2.17427 13.0633 2.28446 12.9892 2.365 12.8875C2.9774 12.1594 3.72871 11.5607 4.57506 11.1262C5.42141 10.6917 6.34584 10.4302 7.29437 10.3569C7.32562 10.3531 7.40375 10.3469 7.5 10.3406V12.5C7.50003 12.6236 7.5367 12.7444 7.60537 12.8472C7.67405 12.9499 7.77165 13.03 7.88584 13.0773C8.00003 13.1246 8.12567 13.137 8.24689 13.1129C8.36811 13.0888 8.47947 13.0293 8.56687 12.9419L13.5669 7.94187C13.684 7.82467 13.7499 7.66572 13.7499 7.5C13.7499 7.33427 13.684 7.17533 13.5669 7.05812ZM8.75 10.9912V9.6875C8.75 9.52174 8.68415 9.36277 8.56694 9.24555C8.44973 9.12835 8.29076 9.0625 8.125 9.0625C7.96562 9.0625 7.315 9.09375 7.14875 9.11562C5.46425 9.27065 3.8608 9.91064 2.5325 10.9581C2.68328 9.57964 3.33721 8.30521 4.3691 7.37885C5.40098 6.45248 6.7383 5.93928 8.125 5.9375C8.29076 5.9375 8.44973 5.87165 8.56694 5.75444C8.68415 5.63723 8.75 5.47826 8.75 5.3125V4.00875L12.2413 7.5L8.75 10.9912Z" fill="#666666"/>
</svg>
