<svg width="21" height="20" viewBox="0 0 21 20" fill="none" xmlns="http://www.w3.org/2000/svg">
<path d="M12.5653 11.8583C11.9989 12.3075 11.2933 12.5524 10.5658 12.5524C9.83823 12.5524 9.13262 12.3075 8.56625 11.8583C8.39323 11.7169 8.17016 11.6488 7.94613 11.6691C7.72209 11.6895 7.51544 11.7965 7.37163 11.9667C7.22781 12.1368 7.15863 12.3562 7.17928 12.5766C7.19994 12.7969 7.30874 13.0002 7.48177 13.1417C8.3471 13.8522 9.43855 14.2414 10.5658 14.2414C11.693 14.2414 12.7844 13.8522 13.6498 13.1417C13.8228 13.0002 13.9316 12.7969 13.9522 12.5766C13.9729 12.3562 13.9037 12.1368 13.7599 11.9667C13.6887 11.8824 13.6013 11.8127 13.5027 11.7617C13.4042 11.7107 13.2963 11.6792 13.1854 11.6691C12.9614 11.6488 12.7383 11.7169 12.5653 11.8583ZM8.02401 9.16666C8.19158 9.16666 8.35539 9.11778 8.49472 9.02621C8.63405 8.93465 8.74264 8.8045 8.80677 8.65223C8.87089 8.49995 8.88767 8.3324 8.85498 8.17075C8.82229 8.0091 8.7416 7.86061 8.62311 7.74407C8.50462 7.62752 8.35365 7.54816 8.1893 7.516C8.02495 7.48385 7.85459 7.50035 7.69978 7.56342C7.54496 7.6265 7.41264 7.73331 7.31955 7.87035C7.22645 8.00739 7.17676 8.16851 7.17676 8.33332C7.17676 8.55434 7.26602 8.7663 7.42491 8.92258C7.5838 9.07886 7.7993 9.16666 8.02401 9.16666ZM13.1075 7.49999C12.9399 7.49999 12.7761 7.54886 12.6368 7.64043C12.4975 7.732 12.3889 7.86215 12.3248 8.01442C12.2606 8.16669 12.2439 8.33425 12.2765 8.4959C12.3092 8.65755 12.3899 8.80604 12.5084 8.92258C12.6269 9.03912 12.7779 9.11849 12.9422 9.15064C13.1066 9.1828 13.2769 9.1663 13.4317 9.10322C13.5866 9.04015 13.7189 8.93334 13.812 8.7963C13.9051 8.65926 13.9548 8.49814 13.9548 8.33332C13.9548 8.11231 13.8655 7.90035 13.7066 7.74407C13.5477 7.58779 13.3322 7.49999 13.1075 7.49999ZM10.5658 1.66666C8.89006 1.66666 7.25198 2.1554 5.85869 3.07108C4.46539 3.98675 3.37945 5.28824 2.73818 6.81096C2.09692 8.33368 1.92913 10.0092 2.25605 11.6257C2.58296 13.2423 3.38989 14.7271 4.57479 15.8925C5.75969 17.058 7.26935 17.8517 8.91286 18.1732C10.5564 18.4947 12.2599 18.3297 13.8081 17.699C15.3562 17.0683 16.6794 16.0002 17.6104 14.6297C18.5414 13.2593 19.0383 11.6482 19.0383 9.99999C19.0383 8.90564 18.8191 7.82201 18.3933 6.81096C17.9676 5.79991 17.3435 4.88125 16.5567 4.10743C15.77 3.33361 14.836 2.71978 13.8081 2.30099C12.7801 1.8822 11.6784 1.66666 10.5658 1.66666ZM10.5658 16.6667C9.2252 16.6667 7.91474 16.2757 6.8001 15.5431C5.68546 14.8106 4.81671 13.7694 4.3037 12.5512C3.79069 11.333 3.65646 9.99259 3.91799 8.69939C4.17952 7.40618 4.82506 6.2183 5.77299 5.28594C6.72091 4.35359 7.92863 3.71866 9.24344 3.46142C10.5582 3.20419 11.9211 3.33621 13.1596 3.84079C14.3981 4.34538 15.4567 5.19986 16.2015 6.29619C16.9462 7.39252 17.3438 8.68145 17.3438 9.99999C17.3438 11.7681 16.6297 13.4638 15.3585 14.714C14.0874 15.9643 12.3634 16.6667 10.5658 16.6667Z" fill="#A1A1A1"/>
</svg>
